<svg width="588" height="216" viewBox="0 0 588 216" fill="none" xmlns="http://www.w3.org/2000/svg">
<path d="M436.463 177.883C438.802 173.907 444.494 168.059 448.159 158.001C451.823 147.943 453.461 142.563 454.786 127.593M436.463 177.883C436.853 188.565 451.122 181.158 456.736 181.002C462.349 180.846 460.79 181.704 464.533 177.103C468.275 172.503 474.357 156.753 475.448 158.001C476.54 159.248 469.99 177.649 469.99 183.341C469.99 189.033 469.211 185.056 475.448 186.46C481.686 187.863 493.225 190.358 501.178 190.358C509.131 190.358 508.819 186.07 515.213 186.46C521.607 186.85 528.312 192.308 533.146 192.308C537.98 192.308 539.384 193.321 539.384 186.46C539.384 179.598 532.366 160.184 533.146 158.001C533.926 155.818 536.421 170.944 543.282 175.544C550.143 180.144 559.344 181.002 567.453 181.002C575.562 181.002 580.552 177.805 583.826 175.544C587.101 173.283 586.322 177.337 583.826 169.696C581.331 162.055 575.406 159.638 571.351 137.339C567.297 115.039 566.907 77.5359 562.385 58.5892C548.74 39.0968 557.317 45.3344 548.74 39.0968C540.163 32.8592 527.844 30.1301 520.671 27.0113C513.498 23.8925 520.515 25.8418 512.874 27.0113C505.233 28.1808 491.822 28.4927 482.466 32.859C473.109 37.2254 471.628 38.7848 466.092 48.8429C460.556 58.901 457.047 67.3997 454.786 83.1496M436.463 177.883C436.074 167.201 451.122 146.539 454.786 127.593M454.786 127.593C456.112 112.622 452.525 98.8996 454.786 83.1496M454.786 127.593C458.451 108.646 454.786 85.4108 454.786 83.1496M454.786 83.1496C454.786 80.8885 458.451 113.48 454.786 116.287C451.122 119.094 440.674 104.513 436.463 97.1842C432.253 89.8551 433.345 84.1633 433.734 79.641C434.124 75.1187 435.528 75.5866 438.413 74.573C441.297 73.5593 444.884 72.8576 448.159 74.573C451.434 76.2883 449.328 86.1905 454.786 83.1496Z" stroke="black" stroke-width="2.3391"/>
<path d="M470.77 64.046C471.784 62.9544 473.265 58.1982 475.838 58.5881C478.411 58.9779 482.076 64.5138 483.635 65.9952" stroke="black" stroke-width="2.3391"/>
<path d="M494.551 67.1651C495.565 66.0735 497.046 61.3174 499.619 61.7072C502.192 62.0971 505.857 67.6329 507.416 69.1144" stroke="black" stroke-width="2.3391"/>
<path d="M486.364 83.5387C484.649 82.915 484.493 79.4843 484.025 78.4707C485.74 79.0945 492.134 80.5759 492.602 81.5895C493.069 82.6031 488.079 84.1625 486.364 83.5387Z" stroke="black" stroke-width="2.3391"/>
<path d="M553.808 88.9971C549.208 91.882 536.265 98.8993 530.807 103.422C525.349 107.944 526.519 108.49 526.519 111.608C526.519 114.727 527.454 116.832 530.807 119.015C534.16 121.199 538.682 122.524 543.282 122.524C547.883 122.524 551.703 119.717 553.808 119.015" stroke="black" stroke-width="2.3391"/>
<path d="M534.315 82.3691V101.472L542.892 96.7936V82.3691H534.315Z" stroke="black" stroke-width="2.3391"/>
<path d="M521.451 82.3691C524.491 88.2948 531.743 82.3691 534.316 82.3691C536.265 82.3691 542.58 98.275 544.062 82.3691C545.543 66.4633 544.619 18.7083 541.5 5.99919C538.381 -6.70991 530.032 12.176 528 17.9997C521.451 34.4176 523.322 27.6342 521.451 34.4176C519.579 41.201 519.111 43.1502 519.111 52.7405C519.111 62.3308 518.41 76.4434 521.451 82.3691Z" stroke="black" stroke-width="2.3391"/>
<path d="M5.09838 93.709V39.6352H39.8601V48.905H15.2951V61.8055H37.6971V71.0753H15.2951V84.4392H40.3236V93.709H5.09838ZM47.8716 93.709V39.6352H71.355C74.7539 39.6352 77.7151 40.2275 80.2386 41.4119C82.762 42.5964 84.7189 44.2701 86.1094 46.4331C87.4999 48.596 88.1951 51.1452 88.1951 54.0807V55.0076C88.1951 58.2521 87.4226 60.8785 85.8777 62.887C84.3327 64.8954 82.4273 66.3631 80.1613 67.2901V68.6806C82.2213 68.7836 83.8177 69.5045 84.9507 70.8435C86.0837 72.131 86.6502 73.8562 86.6502 76.0191V93.709H76.4534V77.4869C76.4534 76.2509 76.1186 75.2467 75.4492 74.4742C74.8312 73.7017 73.7755 73.3155 72.282 73.3155H58.0683V93.709H47.8716ZM58.0683 64.0457H70.2735C72.694 64.0457 74.5737 63.4019 75.9127 62.1145C77.3031 60.7755 77.9984 59.0245 77.9984 56.8616V56.0891C77.9984 53.9262 77.3289 52.2009 75.9899 50.9135C74.6509 49.5745 72.7455 48.905 70.2735 48.905H58.0683V64.0457ZM96.6797 93.709V39.6352H120.163C123.562 39.6352 126.523 40.2275 129.047 41.4119C131.57 42.5964 133.527 44.2701 134.918 46.4331C136.308 48.596 137.003 51.1452 137.003 54.0807V55.0076C137.003 58.2521 136.231 60.8785 134.686 62.887C133.141 64.8954 131.235 66.3631 128.969 67.2901V68.6806C131.029 68.7836 132.626 69.5045 133.759 70.8435C134.892 72.131 135.458 73.8562 135.458 76.0191V93.709H125.262V77.4869C125.262 76.2509 124.927 75.2467 124.257 74.4742C123.639 73.7017 122.584 73.3155 121.09 73.3155H106.877V93.709H96.6797ZM106.877 64.0457H119.082C121.502 64.0457 123.382 63.4019 124.721 62.1145C126.111 60.7755 126.807 59.0245 126.807 56.8616V56.0891C126.807 53.9262 126.137 52.2009 124.798 50.9135C123.459 49.5745 121.554 48.905 119.082 48.905H106.877V64.0457ZM166.499 94.7905C159.702 94.7905 154.294 92.9365 150.277 89.2286C146.26 85.4692 144.252 80.1133 144.252 73.161V60.1833C144.252 53.2309 146.26 47.9008 150.277 44.1929C154.294 40.4335 159.702 38.5538 166.499 38.5538C173.297 38.5538 178.705 40.4335 182.722 44.1929C186.738 47.9008 188.747 53.2309 188.747 60.1833V73.161C188.747 80.1133 186.738 85.4692 182.722 89.2286C178.705 92.9365 173.297 94.7905 166.499 94.7905ZM166.499 85.6752C170.31 85.6752 173.272 84.5679 175.383 82.3535C177.494 80.1391 178.55 77.1779 178.55 73.47V59.8743C178.55 56.1664 177.494 53.2052 175.383 50.9907C173.272 48.7763 170.31 47.6691 166.499 47.6691C162.74 47.6691 159.779 48.7763 157.616 50.9907C155.504 53.2052 154.449 56.1664 154.449 59.8743V73.47C154.449 77.1779 155.504 80.1391 157.616 82.3535C159.779 84.5679 162.74 85.6752 166.499 85.6752ZM197.691 93.709V39.6352H221.174C224.573 39.6352 227.534 40.2275 230.058 41.4119C232.581 42.5964 234.538 44.2701 235.929 46.4331C237.319 48.596 238.014 51.1452 238.014 54.0807V55.0076C238.014 58.2521 237.242 60.8785 235.697 62.887C234.152 64.8954 232.247 66.3631 229.981 67.2901V68.6806C232.041 68.7836 233.637 69.5045 234.77 70.8435C235.903 72.131 236.469 73.8562 236.469 76.0191V93.709H226.273V77.4869C226.273 76.2509 225.938 75.2467 225.268 74.4742C224.65 73.7017 223.595 73.3155 222.101 73.3155H207.888V93.709H197.691ZM207.888 64.0457H220.093C222.513 64.0457 224.393 63.4019 225.732 62.1145C227.122 60.7755 227.818 59.0245 227.818 56.8616V56.0891C227.818 53.9262 227.148 52.2009 225.809 50.9135C224.47 49.5745 222.565 48.905 220.093 48.905H207.888V64.0457ZM289.596 93.709V82.7397H263.023V71.307L281.717 39.6352H299.484V73.9334H308.445V82.7397H299.484V93.709H289.596ZM272.447 73.9334H289.596V45.9696H288.206L272.447 72.6975V73.9334ZM335.153 94.7905C328.767 94.7905 323.643 93.0395 319.78 89.5376C315.918 85.9842 313.987 80.6283 313.987 73.47V59.8743C313.987 52.9219 315.918 47.6433 319.78 44.0384C323.643 40.382 328.767 38.5538 335.153 38.5538C341.59 38.5538 346.714 40.382 350.525 44.0384C354.388 47.6433 356.319 52.9219 356.319 59.8743V73.47C356.319 80.6283 354.388 85.9842 350.525 89.5376C346.714 93.0395 341.59 94.7905 335.153 94.7905ZM335.153 85.9842C339.015 85.9842 341.848 84.9284 343.65 82.817C345.504 80.7055 346.431 77.6929 346.431 73.7789V59.4108C346.431 55.4454 345.401 52.4584 343.341 50.45C341.333 48.39 338.603 47.3601 335.153 47.3601C331.599 47.3601 328.818 48.4158 326.81 50.5272C324.853 52.6387 323.875 55.5999 323.875 59.4108V73.7789C323.875 77.8474 324.802 80.9115 326.655 82.9715C328.561 84.9799 331.393 85.9842 335.153 85.9842ZM388.797 93.709V82.7397H362.223V71.307L380.918 39.6352H398.685V73.9334H407.645V82.7397H398.685V93.709H388.797ZM371.648 73.9334H388.797V45.9696H387.406L371.648 72.6975V73.9334Z" fill="#D60000"/>
<path d="M5.33013 192.709V138.635H23.0972L35.8432 186.452H37.0791V138.635H46.2717V192.709H28.5818L15.8359 144.892H14.5227V192.709H5.33013ZM77.632 193.79C70.9372 193.79 65.5813 191.937 61.5644 188.229C57.599 184.469 55.6163 179.088 55.6163 172.084V159.261C55.6163 152.257 57.599 146.901 61.5644 143.193C65.5813 139.433 70.9372 137.554 77.632 137.554C84.3784 137.554 89.7342 139.433 93.6997 143.193C97.6651 146.901 99.6478 152.257 99.6478 159.261V172.084C99.6478 179.088 97.6651 184.469 93.6997 188.229C89.7342 191.937 84.3784 193.79 77.632 193.79ZM77.632 185.448C81.6489 185.448 84.7646 184.289 86.9791 181.971C89.245 179.603 90.378 176.41 90.378 172.393V158.952C90.378 154.935 89.245 151.767 86.9791 149.45C84.7646 147.081 81.6489 145.897 77.632 145.897C73.6666 145.897 70.5509 147.081 68.285 149.45C66.0705 151.767 64.9633 154.935 64.9633 158.952V172.393C64.9633 176.41 66.0705 179.603 68.285 181.971C70.5509 184.289 73.6666 185.448 77.632 185.448ZM119.464 192.709V147.055H103.319V138.635H144.879V147.055H128.734V192.709H119.464ZM169.558 192.709V138.635H203.238V147.055H178.905V161.346H201.307V169.844H178.905V192.709H169.558ZM231.148 193.79C224.453 193.79 219.097 191.937 215.08 188.229C211.115 184.469 209.132 179.088 209.132 172.084V159.261C209.132 152.257 211.115 146.901 215.08 143.193C219.097 139.433 224.453 137.554 231.148 137.554C237.894 137.554 243.25 139.433 247.215 143.193C251.181 146.901 253.163 152.257 253.163 159.261V172.084C253.163 179.088 251.181 184.469 247.215 188.229C243.25 191.937 237.894 193.79 231.148 193.79ZM231.148 185.448C235.165 185.448 238.28 184.289 240.495 181.971C242.761 179.603 243.894 176.41 243.894 172.393V158.952C243.894 154.935 242.761 151.767 240.495 149.45C238.28 147.081 235.165 145.897 231.148 145.897C227.182 145.897 224.067 147.081 221.801 149.45C219.586 151.767 218.479 154.935 218.479 158.952V172.393C218.479 176.41 219.586 179.603 221.801 181.971C224.067 184.289 227.182 185.448 231.148 185.448ZM283.045 193.79C278.719 193.79 274.986 193.018 271.844 191.473C268.754 189.877 266.36 187.585 264.66 184.598C263.012 181.611 262.188 178.058 262.188 173.938V138.635H271.458V174.169C271.458 177.774 272.462 180.555 274.471 182.512C276.479 184.469 279.337 185.448 283.045 185.448C286.805 185.448 289.663 184.469 291.62 182.512C293.628 180.555 294.632 177.774 294.632 174.169V138.635H303.902V173.938C303.902 178.058 303.078 181.611 301.43 184.598C299.782 187.585 297.388 189.877 294.246 191.473C291.105 193.018 287.371 193.79 283.045 193.79ZM314.323 192.709V138.635H332.09L344.836 186.452H346.072V138.635H355.264V192.709H337.575L324.829 144.892H323.515V192.709H314.323ZM364.146 192.709V184.521H371.407V146.824H364.146V138.635H386.161C393.371 138.635 398.882 140.463 402.692 144.12C406.503 147.776 408.409 153.261 408.409 160.574V170.77C408.409 178.083 406.503 183.568 402.692 187.224C398.882 190.881 393.371 192.709 386.161 192.709H364.146ZM380.677 184.289H386.239C390.616 184.289 393.86 183.156 395.972 180.89C398.083 178.624 399.139 175.354 399.139 171.079V160.342C399.139 155.965 398.083 152.669 395.972 150.454C393.86 148.188 390.616 147.055 386.239 147.055H380.677V184.289Z" fill="black"/>
</svg>
